<svg width="16" height="16" viewBox="0 0 16 16" fill="none" xmlns="http://www.w3.org/2000/svg">
<path d="M15.975 12.0936L15.2484 15.2436C15.1464 15.689 14.755 16.0005 14.2966 16.0005C6.4125 15.9999 0 9.5874 0 1.70303C0 1.24491 0.311531 0.853033 0.756875 0.751471L3.90688 0.0249093C4.36563 -0.0814031 4.83438 0.156722 5.025 0.591159L6.47875 3.98178C6.64869 4.38115 6.53406 4.84647 6.19813 5.12084L4.51563 6.47178C5.5775 8.6349 7.33625 10.3936 9.5 11.4561L10.8775 9.7749C11.149 9.43802 11.6178 9.32146 12.0172 9.49443L15.4078 10.9479C15.8156 11.1624 16.0813 11.6374 15.975 12.0936Z" fill="#8E8EA9"/>
</svg>
