<svg width="32" height="24" viewBox="0 0 32 24" fill="none" xmlns="http://www.w3.org/2000/svg">
<g clip-path="url(#clip0_85_2532)">
<rect x="0.5" y="0.5" width="31" height="23" rx="2.5" fill="#EAFBE7" stroke="#C6F0C2"/>
<path d="M6.29794 16H4.32067L7.33345 7.27273H9.71129L12.7198 16H10.7425L8.55646 9.26705H8.48828L6.29794 16ZM6.17436 12.5696H10.8448V14.0099H6.17436V12.5696ZM15.8434 16.1065C15.3462 16.1065 14.896 15.9787 14.4925 15.723C14.092 15.4645 13.7738 15.0852 13.538 14.5852C13.305 14.0824 13.1886 13.4659 13.1886 12.7358C13.1886 11.9858 13.3093 11.3622 13.5508 10.8651C13.7923 10.3651 14.1133 9.99148 14.5138 9.74432C14.9173 9.49432 15.359 9.36932 15.8391 9.36932C16.2056 9.36932 16.511 9.43182 16.7553 9.55682C17.0025 9.67898 17.2013 9.83239 17.3519 10.017C17.5053 10.1989 17.6218 10.3778 17.7013 10.554H17.7567V7.27273H19.5678V16H17.7781V14.9517H17.7013C17.6161 15.1335 17.4954 15.3139 17.3391 15.4929C17.1857 15.669 16.9854 15.8153 16.7383 15.9318C16.494 16.0483 16.1957 16.1065 15.8434 16.1065ZM16.4187 14.6619C16.7113 14.6619 16.9585 14.5824 17.1602 14.4233C17.3647 14.2614 17.521 14.0355 17.6289 13.7457C17.7397 13.456 17.7951 13.1165 17.7951 12.7273C17.7951 12.3381 17.7411 12 17.6332 11.7131C17.5252 11.4261 17.369 11.2045 17.1644 11.0483C16.9599 10.892 16.7113 10.8139 16.4187 10.8139C16.1204 10.8139 15.869 10.8949 15.6644 11.0568C15.4599 11.2187 15.305 11.4432 15.1999 11.7301C15.0948 12.017 15.0423 12.3494 15.0423 12.7273C15.0423 13.108 15.0948 13.4446 15.1999 13.7372C15.3079 14.027 15.4627 14.2543 15.6644 14.419C15.869 14.581 16.1204 14.6619 16.4187 14.6619ZM23.4723 16.1065C22.9751 16.1065 22.5249 15.9787 22.1214 15.723C21.7209 15.4645 21.4027 15.0852 21.1669 14.5852C20.9339 14.0824 20.8175 13.4659 20.8175 12.7358C20.8175 11.9858 20.9382 11.3622 21.1797 10.8651C21.4212 10.3651 21.7422 9.99148 22.1428 9.74432C22.5462 9.49432 22.9879 9.36932 23.468 9.36932C23.8345 9.36932 24.1399 9.43182 24.3842 9.55682C24.6314 9.67898 24.8303 9.83239 24.9808 10.017C25.1342 10.1989 25.2507 10.3778 25.3303 10.554H25.3857V7.27273H27.1967V16H25.407V14.9517H25.3303C25.245 15.1335 25.1243 15.3139 24.968 15.4929C24.8146 15.669 24.6143 15.8153 24.3672 15.9318C24.1229 16.0483 23.8246 16.1065 23.4723 16.1065ZM24.0476 14.6619C24.3402 14.6619 24.5874 14.5824 24.7891 14.4233C24.9936 14.2614 25.1499 14.0355 25.2578 13.7457C25.3686 13.456 25.424 13.1165 25.424 12.7273C25.424 12.3381 25.37 12 25.2621 11.7131C25.1541 11.4261 24.9979 11.2045 24.7933 11.0483C24.5888 10.892 24.3402 10.8139 24.0476 10.8139C23.7493 10.8139 23.4979 10.8949 23.2933 11.0568C23.0888 11.2187 22.9339 11.4432 22.8288 11.7301C22.7237 12.017 22.6712 12.3494 22.6712 12.7273C22.6712 13.108 22.7237 13.4446 22.8288 13.7372C22.9368 14.027 23.0916 14.2543 23.2933 14.419C23.4979 14.581 23.7493 14.6619 24.0476 14.6619Z" fill="#328048"/>
</g>
<defs>
<clipPath id="clip0_85_2532">
<rect width="32" height="24" fill="white"/>
</clipPath>
</defs>
</svg>
