<svg width="16" height="16" viewBox="0 0 16 16" fill="none" xmlns="http://www.w3.org/2000/svg">
<path fill-rule="evenodd" clip-rule="evenodd" d="M9.0606 0.467537L10.7855 2.19239L12.0312 0.946697C12.8659 0.111962 14.2192 0.111962 15.054 0.946697C15.8887 1.78142 15.8887 3.1348 15.054 3.96953L13.8083 5.21524L15.5327 6.93963C16.1185 7.52541 16.1185 8.47515 15.5327 9.06094L13.8084 10.7852L13.0385 10.0153C12.2037 9.18052 10.8504 9.18052 10.0157 10.0153C9.18092 10.85 9.18092 12.2034 10.0157 13.0382L10.7856 13.8081L9.0607 15.533C8.47491 16.1188 7.52516 16.1188 6.93937 15.533L5.21508 13.8088L3.97027 15.0536C3.13554 15.8883 1.78217 15.8883 0.947436 15.0536C0.112709 14.2188 0.112709 12.8654 0.947436 12.0308L2.19226 10.7859L0.467233 9.06091C-0.118554 8.47512 -0.118554 7.52538 0.467233 6.93959L2.19201 5.21481L2.96222 5.98502C3.79696 6.81975 5.15032 6.81975 5.98506 5.98502C6.81977 5.15028 6.81977 3.79691 5.98506 2.96218L5.21485 2.19197L6.93928 0.467539C7.52507 -0.118248 8.47482 -0.118249 9.0606 0.467537Z" fill="#8E8EA9"/>
</svg>
