<svg width="32" height="32" viewBox="0 0 32 32" fill="none" xmlns="http://www.w3.org/2000/svg">
<rect width="32" height="32" rx="9" fill="#9736E8"/>
<g clip-path="url(#clip0_4_376)">
<path d="M22.9781 19.5819L22.3424 22.3382C22.2531 22.7278 21.9106 23.0004 21.5095 23.0004C14.6109 22.9999 9 17.3889 9 10.4901C9 10.0893 9.27259 9.74637 9.66227 9.6575L12.4185 9.02176C12.8199 8.92874 13.2301 9.1371 13.3969 9.51723L14.6689 12.484C14.8176 12.8335 14.7173 13.2406 14.4234 13.4807L12.9512 14.6628C13.8803 16.5555 15.4192 18.0944 17.3125 19.0241L18.5178 17.553C18.7554 17.2582 19.1656 17.1562 19.515 17.3076L22.4818 18.5793C22.8387 18.7671 23.0711 19.1827 22.9781 19.5819Z" fill="white"/>
</g>
<defs>
<clipPath id="clip0_4_376">
<rect width="14" height="14" fill="white" transform="translate(9 9)"/>
</clipPath>
</defs>
</svg>
