<svg width="72" height="72" viewBox="0 0 72 72" fill="none" xmlns="http://www.w3.org/2000/svg">
<rect width="72" height="72" rx="9" fill="#6BE29A"/>
<path d="M12.8195 36V18.96H20.1635C20.9955 18.96 21.7635 19.128 22.4675 19.464C23.1715 19.8 23.7795 20.256 24.2915 20.832C24.8035 21.392 25.1955 22.024 25.4675 22.728C25.7555 23.432 25.8995 24.144 25.8995 24.864C25.8995 25.872 25.6595 26.824 25.1795 27.72C24.7155 28.616 24.0595 29.352 23.2115 29.928C22.3795 30.488 21.4035 30.768 20.2835 30.768H17.4995V36H12.8195ZM17.4995 26.688H19.9715C20.1635 26.688 20.3475 26.632 20.5235 26.52C20.6995 26.408 20.8435 26.216 20.9555 25.944C21.0835 25.672 21.1475 25.312 21.1475 24.864C21.1475 24.384 21.0755 24.016 20.9315 23.76C20.8035 23.488 20.6355 23.304 20.4275 23.208C20.2355 23.096 20.0435 23.04 19.8515 23.04H17.4995V26.688Z" fill="white"/>
<path d="M27.7726 36V18.96H35.5966C36.4286 18.96 37.1966 19.128 37.9006 19.464C38.6046 19.8 39.2126 20.256 39.7246 20.832C40.2366 21.392 40.6286 22.024 40.9006 22.728C41.1886 23.432 41.3326 24.144 41.3326 24.864C41.3326 25.52 41.2366 26.152 41.0446 26.76C40.8526 27.368 40.5726 27.928 40.2046 28.44C39.8366 28.936 39.3966 29.368 38.8846 29.736L42.4846 36H37.3486L34.3486 30.768H32.4526V36H27.7726ZM32.4526 26.688H35.4046C35.5966 26.688 35.7806 26.616 35.9566 26.472C36.1326 26.328 36.2766 26.12 36.3886 25.848C36.5166 25.576 36.5806 25.248 36.5806 24.864C36.5806 24.464 36.5086 24.136 36.3646 23.88C36.2366 23.608 36.0686 23.4 35.8606 23.256C35.6686 23.112 35.4766 23.04 35.2846 23.04H32.4526V26.688Z" fill="white"/>
<path d="M51.437 36.144C50.141 36.144 48.965 35.904 47.909 35.424C46.853 34.928 45.941 34.272 45.173 33.456C44.421 32.624 43.837 31.696 43.421 30.672C43.021 29.632 42.821 28.56 42.821 27.456C42.821 26.32 43.037 25.24 43.469 24.216C43.901 23.192 44.501 22.28 45.269 21.48C46.053 20.664 46.973 20.024 48.029 19.56C49.101 19.096 50.269 18.864 51.533 18.864C52.829 18.864 54.005 19.112 55.061 19.608C56.117 20.088 57.021 20.744 57.773 21.576C58.525 22.408 59.101 23.344 59.501 24.384C59.917 25.408 60.125 26.464 60.125 27.552C60.125 28.672 59.909 29.744 59.477 30.768C59.061 31.792 58.461 32.712 57.677 33.528C56.909 34.328 55.997 34.968 54.941 35.448C53.885 35.912 52.717 36.144 51.437 36.144ZM47.573 27.504C47.573 28.08 47.653 28.64 47.813 29.184C47.973 29.712 48.213 30.192 48.533 30.624C48.853 31.04 49.253 31.376 49.733 31.632C50.229 31.872 50.813 31.992 51.485 31.992C52.157 31.992 52.741 31.864 53.237 31.608C53.733 31.352 54.133 31.008 54.437 30.576C54.757 30.128 54.989 29.64 55.133 29.112C55.293 28.568 55.373 28.016 55.373 27.456C55.373 26.88 55.293 26.328 55.133 25.8C54.973 25.272 54.733 24.8 54.413 24.384C54.093 23.952 53.685 23.616 53.189 23.376C52.693 23.136 52.117 23.016 51.461 23.016C50.789 23.016 50.205 23.144 49.709 23.4C49.229 23.656 48.829 24 48.509 24.432C48.189 24.848 47.949 25.328 47.789 25.872C47.645 26.4 47.573 26.944 47.573 27.504Z" fill="white"/>
<path d="M13.2404 52V41.35H15.3104V50.185H20.7404V52H13.2404Z" fill="white"/>
<path d="M29.3951 50.185V52H22.0001V41.35H29.2601V43.165H24.0701V45.73H28.5551V47.41H24.0701V50.185H29.3951Z" fill="white"/>
<path d="M33.9039 41.35H36.0039L39.9189 52H37.7889L36.7989 49.345H33.0789L32.1039 52H29.9739L33.9039 41.35ZM36.4239 47.89L34.9539 43.495L33.4239 47.89H36.4239Z" fill="white"/>
<path d="M41.087 52V41.35H44.957C46.117 41.35 47.087 41.59 47.867 42.07C48.647 42.54 49.232 43.18 49.622 43.99C50.012 44.79 50.207 45.68 50.207 46.66C50.207 47.74 49.992 48.68 49.562 49.48C49.132 50.28 48.522 50.9 47.732 51.34C46.952 51.78 46.027 52 44.957 52H41.087ZM48.122 46.66C48.122 45.97 47.997 45.365 47.747 44.845C47.497 44.315 47.137 43.905 46.667 43.615C46.197 43.315 45.627 43.165 44.957 43.165H43.157V50.185H44.957C45.637 50.185 46.212 50.035 46.682 49.735C47.152 49.425 47.507 49.005 47.747 48.475C47.997 47.935 48.122 47.33 48.122 46.66Z" fill="white"/>
<path d="M58.1254 44.14C58.0554 44.07 57.9254 43.975 57.7354 43.855C57.5554 43.735 57.3304 43.62 57.0604 43.51C56.8004 43.4 56.5154 43.305 56.2054 43.225C55.8954 43.135 55.5804 43.09 55.2604 43.09C54.7004 43.09 54.2754 43.195 53.9854 43.405C53.7054 43.615 53.5654 43.91 53.5654 44.29C53.5654 44.58 53.6554 44.81 53.8354 44.98C54.0154 45.15 54.2854 45.295 54.6454 45.415C55.0054 45.535 55.4554 45.665 55.9954 45.805C56.6954 45.975 57.3004 46.185 57.8104 46.435C58.3304 46.675 58.7254 46.995 58.9954 47.395C59.2754 47.785 59.4154 48.305 59.4154 48.955C59.4154 49.525 59.3104 50.015 59.1004 50.425C58.8904 50.825 58.6004 51.15 58.2304 51.4C57.8604 51.65 57.4404 51.835 56.9704 51.955C56.5004 52.065 56.0004 52.12 55.4704 52.12C54.9404 52.12 54.4104 52.065 53.8804 51.955C53.3504 51.845 52.8404 51.69 52.3504 51.49C51.8604 51.28 51.4104 51.03 51.0004 50.74L51.9154 48.955C52.0054 49.045 52.1654 49.165 52.3954 49.315C52.6254 49.455 52.9054 49.6 53.2354 49.75C53.5654 49.89 53.9254 50.01 54.3154 50.11C54.7054 50.21 55.1004 50.26 55.5004 50.26C56.0604 50.26 56.4854 50.165 56.7754 49.975C57.0654 49.785 57.2104 49.515 57.2104 49.165C57.2104 48.845 57.0954 48.595 56.8654 48.415C56.6354 48.235 56.3154 48.08 55.9054 47.95C55.4954 47.81 55.0104 47.66 54.4504 47.5C53.7804 47.31 53.2204 47.1 52.7704 46.87C52.3204 46.63 51.9854 46.33 51.7654 45.97C51.5454 45.61 51.4354 45.16 51.4354 44.62C51.4354 43.89 51.6054 43.28 51.9454 42.79C52.2954 42.29 52.7654 41.915 53.3554 41.665C53.9454 41.405 54.6004 41.275 55.3204 41.275C55.8204 41.275 56.2904 41.33 56.7304 41.44C57.1804 41.55 57.6004 41.695 57.9904 41.875C58.3804 42.055 58.7304 42.25 59.0404 42.46L58.1254 44.14Z" fill="white"/>
</svg>
