<svg width="16" height="16" viewBox="0 0 16 16" fill="none" xmlns="http://www.w3.org/2000/svg">
<path fill-rule="evenodd" clip-rule="evenodd" d="M2.18182 0C0.976833 0 0 0.976832 0 2.18182V13.819C0 15.024 0.976833 16.0008 2.18182 16.0008H13.8182C15.0232 16.0008 16 15.024 16 13.819V2.18182C16 0.976833 15.0232 0 13.8182 0H2.18182ZM9.93125 7.21875C9.93125 8.34062 9.07456 9.25 7.99813 9.25C6.92188 9.25 6.04813 8.33984 6.065 7.21875C6.065 6.09688 6.92169 5.1875 7.99813 5.1875C9.05863 5.1875 9.93125 6.09688 9.93125 7.21875ZM7.06438 9.875H8.93563C10.4075 9.875 11.6 11.041 11.6 12.4785C11.6 12.7676 11.3619 13 11.0675 13H4.9325C4.63812 13 4.4 12.7676 4.4 12.4785C4.4 11.041 5.5925 9.875 7.06438 9.875ZM13.1 4.5625C13.1 5.42539 12.4284 6.125 11.6 6.125C10.7713 6.125 10.1 5.42539 10.1 4.5625C10.1 3.69961 10.7716 3 11.6 3C12.4288 3 13.1 3.69961 13.1 4.5625ZM5.46797 6.99003C5.45805 7.06534 5.44812 7.14064 5.44812 7.21875C5.44812 7.87695 5.68813 8.47266 6.071 8.9375H2.33037C2.14788 8.9375 2 8.77344 2 8.57227C2 7.56641 2.7395 6.75 3.6515 6.75H4.81063C5.04875 6.75 5.27375 6.79102 5.47829 6.90801C5.47517 6.93544 5.47157 6.96274 5.46797 6.99003ZM5.9 4.5625C5.9 5.42539 5.22837 6.125 4.4 6.125C3.57162 6.125 2.9 5.42539 2.9 4.5625C2.9 3.69961 3.57162 3 4.4 3C5.22875 3 5.9 3.69961 5.9 4.5625ZM11.1886 6.75H12.3481C13.2613 6.75 14 7.56641 14 8.57227C14 8.77344 13.8519 8.9375 13.6689 8.9375H9.9245C10.3066 8.47285 10.5463 7.87715 10.5463 7.21875C10.5463 7.1437 10.5368 7.07162 10.5272 6.99926C10.5234 6.96994 10.5195 6.94057 10.5163 6.91094C10.7221 6.80932 10.9486 6.75 11.1886 6.75Z" fill="#8E8EA9"/>
</svg>
