<svg width="16" height="16" viewBox="0 0 16 16" fill="none" xmlns="http://www.w3.org/2000/svg">
<path d="M7.50307 0.131742C7.78432 -0.0439141 8.18744 -0.0439141 8.49681 0.131742L13.8624 3.19999L13.9718 3.24999V3.27812L15.4968 4.13124C15.8906 4.35624 16.0812 4.81874 15.9656 5.25624C15.8499 5.69374 15.4531 5.99999 14.9718 5.99999H0.971814C0.546502 5.99999 0.149783 5.69374 0.0334076 5.25624C-0.0829674 4.81874 0.110064 4.35624 0.503689 4.13124L1.97181 3.27812V3.24999L2.1365 3.19999L7.50307 0.131742ZM1.99994 6.99999H3.99994V13H5.24994V6.99999H7.24994V13H8.74994V6.99999H10.7499V13H11.9999V6.99999H13.9999V13.1344C14.0187 13.1437 14.0374 13.1281 14.0562 13.1687L15.5562 14.1687C15.9218 14.4125 16.0843 14.8687 15.9562 15.2906C15.8281 15.7125 15.4406 16 14.9999 16H0.999939C0.559314 16 0.170564 15.7125 0.0428451 15.2906C-0.0848424 14.8687 0.0785952 14.4125 0.445251 14.1687L1.94525 13.1687C1.96306 13.1281 1.9815 13.1437 1.99994 13.1344V6.99999Z" fill="#8E8EA9"/>
</svg>
